<svg xmlns="http://www.w3.org/2000/svg" width="64" height="64" viewBox="0 0 64 64" role="img"><rect x="11" y="11" width="42" height="42" rx="11" fill="none" stroke="#FBF9F4" stroke-width="7"/><g transform="rotate(-2.5 32.00 33.00)"><path d="M 5.50,23.06 C 10.34,21.46 20.11,23.27 27.26,23.36 C 34.41,23.46 41.34,23.53 48.38,23.62 C 55.42,23.72 66.60,22.37 69.50,23.93 C 72.40,25.49 67.62,29.92 65.79,33.00 C 63.96,36.08 63.34,40.80 58.50,42.42 C 53.66,44.05 43.89,42.74 36.74,42.76 C 29.59,42.77 22.66,42.49 15.62,42.52 C 8.58,42.56 -2.60,44.57 -5.50,42.98 C -8.40,41.39 -3.62,36.32 -1.79,33.00 C 0.04,29.68 0.66,24.67 5.50,23.06 Z" fill="#FFE600" fill-opacity="0.82"/></g></svg>
