<svg xmlns="http://www.w3.org/2000/svg" width="516" height="135" viewBox="0 0 516.68 135.33" role="img"><g transform="translate(6.00,10.00) scale(1.8020)"><rect x="11" y="11" width="42" height="42" rx="11" fill="none" stroke="#1A1A1A" stroke-width="7"/><g transform="rotate(-2.5 32.00 33.00)"><path d="M 5.50,23.06 C 10.34,21.46 20.11,23.27 27.26,23.36 C 34.41,23.46 41.34,23.53 48.38,23.62 C 55.42,23.72 66.60,22.37 69.50,23.93 C 72.40,25.49 67.62,29.92 65.79,33.00 C 63.96,36.08 63.34,40.80 58.50,42.42 C 53.66,44.05 43.89,42.74 36.74,42.76 C 29.59,42.77 22.66,42.49 15.62,42.52 C 8.58,42.56 -2.60,44.57 -5.50,42.98 C -8.40,41.39 -3.62,36.32 -1.79,33.00 C 0.04,29.68 0.66,24.67 5.50,23.06 Z" fill="#FFE600" fill-opacity="0.82"/></g></g><g transform="translate(151.31,27.06)"><g transform="rotate(-1.5 317.10 53.35)"><path d="M 290.62,20.01 C 298.65,14.79 309.47,21.82 318.69,22.05 C 327.91,22.27 336.85,21.20 345.93,21.38 C 355.01,21.56 370.21,17.79 373.17,23.12 C 376.12,28.45 368.60,43.34 363.67,53.35 C 358.73,63.37 351.60,78.07 343.58,83.22 C 335.55,88.38 324.73,83.76 315.51,84.28 C 306.29,84.80 297.35,86.08 288.27,86.33 C 279.19,86.57 263.99,91.23 261.03,85.73 C 258.08,80.24 265.60,64.31 270.53,53.35 C 275.47,42.40 282.60,25.22 290.62,20.01 Z" fill="#FFE600" fill-opacity="0.92"/></g><g transform="translate(-2.05,79.81) scale(0.108,-0.108)"><g transform="translate(0,0)"><path fill="#1A1A1A" d="M196 -13Q144 -13 104.0 7.5Q64 28 41.5 65.5Q19 103 19 151Q19 203 43.5 239.5Q68 276 108.5 295.5Q149 315 198 315Q271 315 317.0 281.5Q363 248 377 183L311 198V309Q311 334 293.0 352.0Q275 370 237 370Q210 370 175.0 363.0Q140 356 101 337L55 452Q99 474 152.0 488.5Q205 503 262 503Q331 503 378.5 478.0Q426 453 450.0 407.5Q474 362 474 300V0H338L307 97L377 119Q362 58 317.5 22.5Q273 -13 196 -13ZM251 97Q279 97 296.0 112.0Q313 127 313 151Q313 174 296.0 189.0Q279 204 251 204Q221 204 204.5 189.0Q188 174 188 151Q188 127 204.5 112.0Q221 97 251 97Z"/></g><g transform="translate(513,0)"><path fill="#1A1A1A" d="M356 503Q405 503 436.0 486.0Q467 469 484.0 440.5Q501 412 507.5 376.0Q514 340 514 301V0H352V282Q352 320 340.0 332.0Q328 344 305 344Q288 344 269.0 337.5Q250 331 231.5 318.5Q213 306 195 289L160 370H210V0H48V490H168L200 389L141 395Q166 423 199.5 447.5Q233 472 272.5 487.5Q312 503 356 503Z"/></g><g transform="translate(1067,0)"><path fill="#1A1A1A" d="M356 503Q405 503 436.0 486.0Q467 469 484.0 440.5Q501 412 507.5 376.0Q514 340 514 301V0H352V282Q352 320 340.0 332.0Q328 344 305 344Q288 344 269.0 337.5Q250 331 231.5 318.5Q213 306 195 289L160 370H210V0H48V490H168L200 389L141 395Q166 423 199.5 447.5Q233 472 272.5 487.5Q312 503 356 503Z"/></g><g transform="translate(1621,0)"><path fill="#1A1A1A" d="M279 -13Q202 -13 144.0 20.0Q86 53 53.0 111.0Q20 169 20 244Q20 320 53.0 378.0Q86 436 144.0 469.5Q202 503 279 503Q357 503 415.5 469.5Q474 436 506.5 378.0Q539 320 539 244Q539 169 506.5 111.0Q474 53 415.5 20.0Q357 -13 279 -13ZM279 145Q321 145 348.0 172.5Q375 200 375 245Q375 290 348.0 317.5Q321 345 279 345Q238 345 211.0 317.5Q184 290 184 245Q184 201 211.0 173.0Q238 145 279 145Z"/></g><g transform="translate(2181,0)"><path fill="#1A1A1A" d="M280 -8Q193 -8 143.5 33.0Q94 74 94 169V484L92 490L126 609H256V213Q256 177 272.5 162.0Q289 147 316 147Q331 147 344.5 150.0Q358 153 367 156V4Q348 -2 327.0 -5.0Q306 -8 280 -8ZM18 340V490H367V340Z"/></g><g transform="translate(2591,0)"><path fill="#1A1A1A" d="M196 -13Q144 -13 104.0 7.5Q64 28 41.5 65.5Q19 103 19 151Q19 203 43.5 239.5Q68 276 108.5 295.5Q149 315 198 315Q271 315 317.0 281.5Q363 248 377 183L311 198V309Q311 334 293.0 352.0Q275 370 237 370Q210 370 175.0 363.0Q140 356 101 337L55 452Q99 474 152.0 488.5Q205 503 262 503Q331 503 378.5 478.0Q426 453 450.0 407.5Q474 362 474 300V0H338L307 97L377 119Q362 58 317.5 22.5Q273 -13 196 -13ZM251 97Q279 97 296.0 112.0Q313 127 313 151Q313 174 296.0 189.0Q279 204 251 204Q221 204 204.5 189.0Q188 174 188 151Q188 127 204.5 112.0Q221 97 251 97Z"/></g><g transform="translate(3104,0)"><path fill="#1A1A1A" d="M212 0H49V490H212ZM37 645Q37 688 63.0 713.5Q89 739 131 739Q174 739 199.0 713.5Q224 688 224 645Q224 604 199.0 578.5Q174 553 131 553Q89 553 63.0 578.5Q37 604 37 645Z"/></g></g></g></svg>
